# xmcd
#
# Track frame offsets:
#	150
#	20626
#	43320
#	70187
#	94888
#
# Disc length: 1310 seconds
#
# Revision: 1
# Processed by: cddbd v1.5.1PL0 Copyright (c) Steve Scherf et al.
# Submitted via: CDex 1.50Beta5
#
DISCID=42051c05
DTITLE=川嶋あい - プレイリスト
DYEAR=1900
DGENRE=Pop
TTITLE0=飛べない鳥
TTITLE1=トラック２
TTITLE2=トラック３
TTITLE3=トラック４
TTITLE4=トラック５
EXTD=
EXTT0=
EXTT1=
EXTT2=
EXTT3=
EXTT4=
PLAYORDER=
